<svg xmlns="http://www.w3.org/2000/svg" viewBox="0 0 512 512">
  <defs><linearGradient id="g" x1="0" y1="0" x2="1" y2="1">
    <stop offset="0" stop-color="#0FA3A3"/><stop offset="1" stop-color="#12BFAE"/>
  </linearGradient></defs>
  <rect width="512" height="512" rx="112" fill="url(#g)"/>
  <path d="M385.6 230.8 L472.0 256.0 L385.6 281.2 Z" fill="#FFFFFF"/><path d="M375.6 311.8 L430.7 383.0 L346.0 352.5 Z" fill="#FFFFFF"/><path d="M320.0 371.4 L322.7 461.4 L272.1 387.0 Z" fill="#FFFFFF"/><path d="M239.9 387.0 L189.3 461.4 L192.0 371.4 Z" fill="#FFFFFF"/><path d="M166.0 352.5 L81.3 383.0 L136.4 311.8 Z" fill="#FFFFFF"/><path d="M126.4 281.2 L40.0 256.0 L126.4 230.8 Z" fill="#FFFFFF"/><path d="M136.4 200.2 L81.3 129.0 L166.0 159.5 Z" fill="#FFFFFF"/><path d="M192.0 140.6 L189.3 50.6 L239.9 125.0 Z" fill="#FFFFFF"/><path d="M272.1 125.0 L322.7 50.6 L320.0 140.6 Z" fill="#FFFFFF"/><path d="M346.0 159.5 L430.7 129.0 L375.6 200.2 Z" fill="#FFFFFF"/><circle cx="256" cy="256" r="96" fill="#FFFFFF"/><circle cx="256" cy="256" r="52" fill="#FFE066"/>
</svg>